<svg id="svg154" xmlns="http://www.w3.org/2000/svg" viewBox="0 0 199.25 180.27" class="syria-map-image">
                        <defs>
                            <style>
                                .cls-1, .cls-2 { fill: #4A6C47; }
                                .cls-2 { stroke: #000; stroke-miterlimit: 10; stroke-width: .25px; }
                            </style>
                        </defs>
                        <polygon id="polygon8" class="cls-2" points="198.3 6.53 199.1 7.73 198.9 8.03 198.8 8.33 184 25.23 171.6 28.33 170.6 30.23 168.5 34.43 167.8 45.33 168.3 46.23 171 51.63 171.6 53.03 172 60.43 170.3 63.33 169 65.33 168.9 66.33 168.9 67.23 168.9 68.83 168.7 69.93 168.5 70.83 168.1 72.13 167.6 74.03 167.5 75.13 167.4 75.93 167.4 76.43 167.5 79.13 167.6 80.73 168 86.13 168.2 90.93 164.6 97.33 162.7 102.23 162 104.13 152 110.13 138.3 118.23 137.3 118.83 132.4 121.63 126.4 125.13 119.9 128.93 114.1 132.23 101.4 139.63 96.9 142.23 96.4 142.43 93.5 144.23 88.5 147.33 82.11 151.33 71.21 158.13 61.01 164.53 57.21 166.93 57.11 166.93 57.01 167.03 46.61 173.63 37.81 179.23 36.91 180.13 33.51 179.33 31.01 178.83 27.21 178.23 26.31 177.73 23.61 177.43 22.11 175.63 21.11 174.63 17.61 171.93 16.61 172.43 15.41 172.03 14.01 171.43 12.51 168.93 11.81 167.13 9.71 165.03 5.51 164.03 4.61 163.83 2.41 165.13 1.11 166.03 1.01 165.43 1.21 164.53 1.71 163.33 1.61 162.03 .91 161.43 1.01 159.93 .41 158.63 .21 158.53 .61 158.13 .91 157.03 1.01 154.73 1.21 152.93 1.51 151.53 1.61 150.33 2.11 147.43 2.21 147.23 2.61 146.03 2.31 145.73 2.01 145.63 1.11 145.93 .91 145.93 1.01 144.83 5.11 142.73 5.41 142.63 5.91 142.43 6.11 142.33 6.71 141.63 7.11 140.43 7.91 139.93 8.91 139.53 10.41 138.23 13.51 135.23 14.31 134.13 13.31 132.83 11.61 132.03 10.81 131.93 11.81 129.23 13.21 127.43 14.81 125.43 19.91 124.53 23.31 125.63 23.91 125.53 24.41 124.63 23.51 123.73 22.61 123.73 21.31 122.63 22.61 120.33 23.31 119.53 24.81 118.23 28.41 115.73 31.61 112.23 30.71 111.43 29.41 107.23 28.91 104.03 26.81 101.83 26.11 101.43 23.71 101.43 24.11 100.13 25.11 99.53 26.81 98.13 27.01 96.93 24.61 96.53 22.31 96.33 17.01 96.13 16.81 96.33 16.01 96.53 14.31 96.53 12.61 95.93 12.01 94.23 11.51 92.63 10.21 87.73 10.01 86.43 10.11 83.73 10.41 80.93 10.51 79.53 11.61 77.73 12.71 76.23 12.51 75.23 12.31 74.53 11.91 73.83 11.81 68.13 10.01 66.03 7.51 65.23 6.51 62.23 8.01 60.23 9.31 57.73 9.81 56.73 11.01 52.23 12.31 50.03 15.01 51.03 17.71 52.53 18.31 52.83 18.71 53.53 19.01 54.03 19.41 54.03 19.91 52.83 19.91 51.93 20.01 50.83 21.11 48.93 23.41 48.73 25.61 47.83 25.91 46.63 25.81 44.23 25.71 41.33 26.21 40.03 29.61 39.43 30.41 39.33 31.61 39.63 32.81 39.93 34.71 39.53 35.01 37.63 34.11 36.73 31.91 33.53 31.51 32.73 31.01 30.33 32.21 25.63 34.51 18.63 34.51 17.93 34.61 17.93 35.71 18.13 42.31 20.13 43.91 20.83 45.31 22.23 47.91 24.43 51.41 24.33 52.01 24.33 55.01 24.63 59.61 23.93 60.61 23.23 63.61 21.83 64.71 21.43 65.51 21.43 66.71 21.43 70.01 20.33 70.71 19.93 71.81 19.13 72.91 18.73 73.81 18.53 74.71 17.83 75.91 17.03 78.31 15.83 80.11 15.53 84.3 16.13 85.61 16.63 87.9 17.53 88.7 18.03 91.2 20.83 92.9 22.33 94 23.13 95.5 23.33 99.6 23.43 101 23.33 102.1 23.03 103.2 22.93 104.1 23.13 104.8 23.33 105.8 23.73 107 24.23 108.4 24.43 109.4 24.33 110.9 23.93 114.7 23.23 119 22.43 125.6 21.03 128.6 19.83 129.2 19.63 131 18.83 137 15.83 138.4 14.93 138.8 14.63 142.7 11.93 143.6 11.43 144.6 11.13 145.5 11.03 148.9 9.33 149.9 8.73 150.5 8.33 152.8 7.53 153.8 7.33 156.5 7.03 157.4 7.03 162.8 8.03 165.7 8.83 169.9 8.63 172.5 8.43 173.3 8.33 175.2 8.13 183.5 6.23 187.9 4.53 189.7 3.73 190.4 3.13 192.2 1.23 193.1 .12 194.1 .12 196.4 .73 198.1 2.03 198.4 5.73 198.3 6.53"></polygon>
                            </svg>