<?xml version="1.0" encoding="utf-8"?>
<!-- Generator: Adobe Illustrator 27.0.0, SVG Export Plug-In . SVG Version: 6.00 Build 0)  -->
<svg version="1.1"
	 id="Layer_1" xmlns:mapsvg="http://mapsvg.com" xmlns:svg="http://www.w3.org/2000/svg" xmlns:rdf="http://www.w3.org/1999/02/22-rdf-syntax-ns#" xmlns:dc="http://purl.org/dc/elements/1.1/"
	 xmlns="http://www.w3.org/2000/svg" xmlns:xlink="http://www.w3.org/1999/xlink" x="0px" y="0px" viewBox="0 0 659.1 600.5"
	 style="enable-background:new 0 0 659.1 600.5;" xml:space="preserve">
<style type="text/css">
	.st0{fill:#4A6C47;stroke:#000000;stroke-width:0.25;stroke-miterlimit:10;}
	.st1{fill:#CDA349;}
</style>
<g>
	<path id="SY-HA" class="st0" d="M609.2,85.9l-1.7,0.6l-3.6,3.1l-12,3.2l-28,5.2l-0.9,0.5l-1,1l-10.8,19.1l-0.3,11.3l-2.5,20.9
		l-0.9,4.6l12.2,26.6l1.3,24.8l-6,9.6l0,0l-12.6-1.7l-13.5,0.1l-10.4-1.1l-8-2.4l-5.7-1.2l-6.8-3.8l-1.8-2.6l-2.7-1.8L415.4,125
		l-3.9-4.9l-2.2-4.4l-3.8-6.1l-1.5-4l0,0l-0.3-2.1L403,102l-2.8-2.4l-1.9-1.1l-7.6-2.8l-4.5-2.2l-5.5,1.2l-2.1-0.3l-1.8-1.1
		l-5.8-7.6l-0.8-3.4l-1.8-3.6L368,77l0,0l1.3-0.6l1.4,0.2l7.8-1.2l5-1.4l6.7-0.8l5.7-2.2l8.4-0.7l3.4-0.7l4.8-2.7l7.2-2.6l5.2-3.1
		l3.6-1.5l3.5-3l4.5-1.4l4.8-0.8l2.7-1.1l3-1.9l2.2-2.1l1.8-0.8l4.7-3.2l5.9-2.8l3.3-3l1.9-1.2l10.7-2.2l3.6-1.8l2-1.6l7.2-3
		l3.3-2.4l4.4-1l2.9-1.8l4,0.1L506,26l1.6,0.3l3.5-2.2l3.5-0.4l2.8,0.3l5,1.5l11.3,2.1l5.5,0.4l3.4,1.6l0.7,1.5l0.6,0.4l1.8-0.2
		l3.4-1.8h22.7l5.7-0.7l9.8-3.4l7-0.1l3-0.5l21.4-5.2l4.1-2.2l4-1.4l4.8-3l1.6-2.8l1.7-1.7l5.4-4l2.2-4.1l0.8-0.5l0.7,0.2l0.1,1.2
		l-1.4,2.9l0.2,0.8l2.6-0.4l2.8,1.1L650,5l1.2,2.4l1.4,0.6l0.6,1.4l2.2,1.1l0.8,1.1l-0.2,2.1l-1.5,1.4l-0.5,1.7l0.2,1.3l2.5,5.9v3.9
		l0.4,0.7l1.5,0.9l0.4,1.8l-13.4,13.5l-7.1,8.3l-4.2,4l-19.4,23l-3.4,3L609.2,85.9z"/>
	<g id="marker-HA">
		<path class="st1" d="M505.1,77.4c1.4,0,2.8,0.2,4,0.6c1.3,0.4,2.5,1,3.6,1.8c1.5,1.1,2.8,2.4,3.7,3.8c1,1.5,1.6,3.1,1.9,5
			c0.1,0.8,0.2,1.6,0.2,2.4c0,0.8-0.1,1.6-0.2,2.4c-0.1,0.7-0.3,1.4-0.6,2.1c-0.3,0.7-0.6,1.3-1,2c-0.7,1.2-1.4,2.4-2.2,3.5
			c-0.8,1.1-1.6,2.3-2.4,3.4c-1,1.4-1.9,2.7-2.8,4.1c-0.9,1.4-1.9,2.7-2.8,4.1c-0.3,0.5-0.8,0.8-1.3,0.8c-0.5,0.1-0.9-0.1-1.3-0.3
			c-0.1-0.1-0.2-0.1-0.2-0.2c-0.1-0.1-0.1-0.2-0.2-0.2c-1.5-2.1-3-4.3-4.5-6.4c-1.5-2.1-3-4.3-4.5-6.5c-0.5-0.8-1-1.6-1.5-2.4
			s-0.8-1.7-1.1-2.6c-0.2-0.6-0.3-1.2-0.4-1.9c-0.1-0.6-0.1-1.3-0.1-1.9c0-0.8,0-1.5,0.2-2.2c0.1-0.7,0.3-1.5,0.5-2.2
			c0.3-0.8,0.6-1.6,1-2.3c0.4-0.7,0.9-1.4,1.5-2c0.5-0.6,1-1.1,1.6-1.6c0.6-0.5,1.2-0.9,1.8-1.3c0.8-0.5,1.6-0.8,2.4-1.1
			c0.8-0.3,1.7-0.5,2.6-0.6c0.3,0,0.6-0.1,0.9-0.1C504.5,77.4,504.8,77.4,505.1,77.4z M505.1,96.5c1.6,0,3-0.6,4-1.7
			c1-1,1.7-2.4,1.7-4c0-1.5-0.6-2.9-1.6-3.9c-1-1-2.4-1.7-4-1.7c-1.5,0-2.9,0.6-4,1.6s-1.7,2.4-1.7,4c0,1.6,0.6,3,1.6,4
			C502.1,95.9,503.6,96.5,505.1,96.5z"/>
	</g>
</g>
<g>
	<path id="SY-RA" class="st0" d="M255.7,236.7l-1.6-2.6l-5-3.9l0,0l-13.5-13.6l-7.5-9.6l0.3-5.6l1.6-7.6l2.7-8.2l2.5-4.6l4.1-5.7
		l2.5-2.6l2.3-5.8l-0.1-1.2l-4.3-3.5l-1.5-2.6l-4.3-4.4l-1.5-2.2l-0.7-4.5l0.4-3.7l2.7-4.1l1.1-3l2-3.2l1.7-1.6l4.2-2l0.9-1.1l3-0.6
		l10.1-0.5l9.5-1.9l9.5-5.2l6.1-4.4l3.6-4.3l2.3-3.5l1.7-5.7l1.5-8.4l0.2-10.1l-0.5-1.1l-1.2-0.5L286,87l-1.8,0.3l-1.3-1.4l-0.8-3.9
		l0.7-1l5.9-0.8l1-0.7l0.4-2l-1.6-7.2l-0.2-3.9l0,0l9.2,8.8l5.3,1.4l13.9,0.2l10.1-0.7l6.4,0.8l14,3.9l11.6-3l9.3-0.7l0,0l0.4,1.7
		l1.8,3.6l0.8,3.4l5.8,7.6l1.8,1.1l2.1,0.3l5.5-1.2l4.5,2.2l7.6,2.8l1.9,1.1l2.8,2.4l0.8,1.4l0.3,2.1l0,0l-18.3,82.1l1.3,0.1
		l2.7,1.9l1.7,0.4l-42.9,62.7l0,0l-11.5-4.5l-10.4-1.9l-12-4.1l-21.2-4.3l-15.8-1.9l-6.6-0.3l-8.4,0.1L255.7,236.7z"/>
	<g id="marker-RA">
		<path class="st1" d="M321.8,138.1c2.8,0,5.4,0.7,7.7,2.4c3,2.2,5,5.1,5.6,8.8c0.3,1.6,0.3,3.2,0,4.8c-0.3,1.5-0.9,2.8-1.6,4.1
			c-1.4,2.4-3,4.6-4.5,6.9c-1.9,2.7-3.8,5.4-5.7,8.2c-0.7,1-1.9,1-2.5,0.5c-0.2-0.1-0.3-0.3-0.4-0.4c-3-4.3-5.9-8.6-8.9-12.9
			c-1.1-1.6-2-3.2-2.6-5c-0.4-1.2-0.5-2.5-0.5-3.8c0-1.5,0.2-3,0.7-4.4c0.5-1.6,1.4-3,2.5-4.3c1-1.1,2.1-2.2,3.4-2.9
			c1.6-0.9,3.2-1.5,5.1-1.7C320.5,138.2,321.2,138.1,321.8,138.1z M321.8,157.2c3.1,0,5.6-2.5,5.6-5.6c0-3-2.5-5.6-5.6-5.6
			c-3.1,0-5.6,2.5-5.7,5.6C316.1,154.7,318.6,157.2,321.8,157.2z"/>
	</g>
</g>
<g>
	<path id="SY-HL" class="st0" d="M148.5,216.3l-4.5-1.9l-1.9-2.1l-2.5-1l-1.2-2.6l-0.9-0.8l-1.5-0.3l-0.1-3.4l-1.7-2.2l-1.6-5.6
		l4-3.2l0.6-1.8l-0.2-1.3l-1-1.2l-2.7-1.4l-1.9-2.5l-3.9-1l-1.6-2.7l-1.6-1.3l-0.4-2.6l-1.7-1.7l-0.4-1.7l-5.8-8.4l-0.3-6.2
		l-0.7-1.9l-3.2-2l-6-2.3l-2.8-1.9l-0.5-0.6l-0.2-1.9l-1.8-1.6l-0.5-1.1l0.8-1.5l3.8-2.8l6.4-6.6l0.8-1.6l-0.4-1.7l-1.2-1.1
		l-2.2-3.3l-2.7-2l-0.5-3.1l-1-1.2l-1.3,0.1l-1.3,1.6l-1,0.6l-2.8-0.5l-2.9,0.6l0,0v-1.5l-1-1l-2-0.2l-1.8,0.8l-1.3-0.1l0.4-1.3
		l1.6-1.6l-0.7-2.5l0.2-2l-2.3-0.1l-1-0.7l-1.2-3.3l-0.1-1.7l-0.7-0.8l-0.1-2.8l-1.3-2.2l0.2-0.7l-0.4-0.6v-0.5l2-1.4l1.8-3.1
		l1.3-5.1l-0.3-2.6L86.5,85l0.4-2.4l4.4-6.8L91.1,73L90,70.7l0.9-2.3l3.7-4.1l0.8-1.4l-0.1-1.2l-0.9-1.8l0.7-1.2l1,1.3l5.3,1.3
		l6.4,3.1l9.7,2.6l4.1-0.4L126,69l3.1,3.1l3.6,1.6l0.1,1.4l-2.3,4.2l-0.5,2.2l2,0.9l4.2,3.6l1.2-0.4l1.8-4l2.3-0.5l4,1.2l4-1.2
		l4-0.2l6.8,1.2l3.7,0.2l9.9,1.9l2.9-1.4l3.2-3.3l11.9-6.8l3.9-0.8l3.2-1.3h6.4l2.3-1.3l9.2-3.2l6.8-4l6.4-1.3l2.9-3.7l5.5-2.8
		l4.6-1.7l2.1-1.5l3.6,0.1l2.2-0.9l8.9,1.6l5.5,0.4l5,1.9l4.3,2.3l7,2.9l6.7,7l0,0l0.2,3.9l1.6,7.2l-0.4,2l-1,0.7l-5.9,0.8l-0.7,1
		l0.8,3.9l1.3,1.4L286,87l4.4-3.4l1.2,0.5l0.5,1.1l-0.2,10.1l-1.5,8.4l-1.7,5.7l-2.3,3.5l-3.6,4.3l-6.1,4.4l-9.5,5.2l-9.5,1.9
		l-10.1,0.5l-3,0.6l-0.9,1.1l-4.2,2l-1.7,1.6l-2,3.2l-1.1,3l-2.7,4.1l-0.4,3.7l0.7,4.5l1.5,2.2l4.3,4.4l1.5,2.6l4.3,3.5l0.1,1.2
		l-2.3,5.8l-2.5,2.6l-4.1,5.7l-2.5,4.6l-2.7,8.2l-1.6,7.6L228,207l7.5,9.6l13.5,13.6l0,0h-6.7l-11.6,0.9l-7.4-0.6h-15.2l-11.2-1.5
		l-4.9-2.1l-8.9-6.1l-3.1-0.1l-13.5,1.8l-5.1-0.2l-5.7-3.6L148.5,216.3z"/>
	<g id="marker-HL">
		<path class="st1" d="M174,103.8c2.8,0,5.4,0.7,7.7,2.4c3,2.2,5,5.1,5.6,8.8c0.3,1.6,0.3,3.2,0,4.8c-0.3,1.5-0.9,2.8-1.6,4.1
			c-1.4,2.4-3,4.6-4.5,6.9c-1.9,2.7-3.8,5.4-5.7,8.2c-0.7,1-1.9,1-2.5,0.5c-0.2-0.1-0.3-0.3-0.4-0.4c-3-4.3-5.9-8.6-8.9-12.9
			c-1.1-1.6-2-3.2-2.6-5c-0.4-1.2-0.5-2.5-0.5-3.8c0-1.5,0.2-3,0.7-4.4c0.5-1.6,1.4-3,2.5-4.3c1-1.1,2.1-2.2,3.4-2.9
			c1.6-0.9,3.2-1.5,5.1-1.7C172.8,103.9,173.4,103.8,174,103.8z M174,123c3.1,0,5.6-2.5,5.6-5.6c0-3-2.5-5.6-5.6-5.6
			c-3.1,0-5.6,2.5-5.7,5.6C168.4,120.4,170.9,123,174,123z"/>
	</g>
</g>
<g>
	<path id="SY-ID" class="st0" d="M148.5,216.3l-2.2,1l-0.8,2.9l-1.9,4l-1,1.3l-1.3,0.9l-3.2,1l-0.8,0.9l-1,3.2l-1.6,2.4v2l1,0.7
		l1.4-0.1l2.2-3l1.2,0.3l0.7,1.9l0.1,5.4l-0.2,0.3l-1.7-0.7l-0.7,0.3l-1.1,1.1l-1.1,1.9l-1.1,0.5l-5.7,0.2l-1.6-0.8l-0.7-5.4
		l1.2-2.4l0.2-1.5l-0.3-1.8l-1.1-1.6h-0.5l-1.5,2.5L123,236l-1.2,2.9l-0.7,0.4h-2.4l-1.1,0.5l-0.8-1.3l-1.8-1.1l-0.8-1.8l-3.8-3
		l-8.6,1.8l-2.5,1.3l-4.2,0.3l-3.2-0.3l-6.5-1.8h-3.9l-1-0.7l-1.2-2.6l-3-1.5l-2.7,1.7l-2.6,0.5l-1.1-1.1l-1.1-4.1l-1.7-3.2l1-1.7
		l-0.6-3.4l0.2-2.1l-0.7-1.9v-1.4l2.2-11.8l-0.1-3.3l-0.8-0.4l-5-0.1l-0.7-0.4l-1.1-3.1L60,193l-2.1,1.1l-1.9,0.1l-1.9-1l-0.7-1.2
		l0,0l2.9-1.8l0.5-1.8l-0.2-0.8l-1.7-0.6l-3.8,0.2l-6.7,1.1l-1.1-0.6l-0.3-0.8l0.4-1.7l-0.5-2.6l0,0l0.7,1.6l1.4,0.6l1.4-2.4
		l0.6-5.9l-0.8-2.1l0.7-2l2.5-4l1.6-1.1l1.5-0.4l1.9,0.2l1.5,0.9l2.3-0.3l0.3-0.4l-1.1-2.4l0.3-1.4l1.9-1.5l2.7,1.4l2.4-0.3l1-0.8
		l0.4-1.1l-0.1-2l1.4-2.4l-0.6-2.7l0.9-1.9l-1.2-1.9l-0.5-2.4l1.1-2.9l-1.5-3.3l1.2-2.3L68,139l0.2-1l-0.6-2.9l0.6-0.4l3.2,1.8
		l2.2,0.4l1.3,0.8l1.1-0.4l1.3-3.5l1.4,0.6l1.3-1h2l1.5,1.2l2.6-0.5l2.5,1.8l0.9,0.1l0.9-0.1l1.3-1.4h3.4l2.6-1.8l0.5-1.3l-1.3-2
		l0.8-2.5l-0.6-0.6l-2.3-0.7l-0.2-1.4l0,0l2.9-0.6l2.8,0.5l1-0.6l1.3-1.6l1.3-0.1l1,1.2l0.5,3.1l2.7,2l2.2,3.3l1.2,1.1l0.4,1.7
		l-0.8,1.6l-6.4,6.6l-3.8,2.8l-0.8,1.5l0.5,1.1l1.8,1.6l0.2,1.9l0.5,0.6l2.8,1.9l6,2.3l3.2,2l0.7,1.9l0.3,6.2l5.8,8.4l0.4,1.7
		l1.7,1.7l0.4,2.6l1.6,1.3l1.6,2.7l3.9,1l1.9,2.5l2.7,1.4l1,1.2l0.2,1.3l-0.6,1.8l-4,3.2l1.6,5.6l1.7,2.2l0.1,3.4l1.5,0.3l0.9,0.8
		l1.2,2.6l2.5,1l1.9,2.1L148.5,216.3z"/>
	<g id="marker-ID">
		<path class="st1" d="M95.7,159.6c2.8,0,5.4,0.7,7.7,2.4c3,2.2,5,5.1,5.6,8.8c0.3,1.6,0.3,3.2,0,4.8c-0.3,1.5-0.9,2.8-1.6,4.1
			c-1.4,2.4-3,4.6-4.5,6.9c-1.9,2.7-3.8,5.4-5.7,8.2c-0.7,1-1.9,1-2.5,0.5c-0.2-0.1-0.3-0.3-0.4-0.4c-3-4.3-5.9-8.6-8.9-12.9
			c-1.1-1.6-2-3.2-2.6-5c-0.4-1.2-0.5-2.5-0.5-3.8c0-1.5,0.2-3,0.7-4.4c0.5-1.6,1.4-3,2.5-4.3c1-1.1,2.1-2.2,3.4-2.9
			c1.6-0.9,3.2-1.5,5.1-1.7C94.5,159.7,95.1,159.6,95.7,159.6z M95.7,178.8c3.1,0,5.6-2.5,5.6-5.6c0-3-2.5-5.6-5.6-5.6
			c-3.1,0-5.6,2.5-5.7,5.6C90,176.2,92.6,178.8,95.7,178.8z"/>
	</g>
</g>
<g>
	<path id="SY-HM" class="st0" d="M53.6,191.6l0.7,1.2l1.9,1l1.9-0.1l2.1-1.1l1.5,0.3l1.1,3.1l0.7,0.4l5,0.1l0.8,0.4l0.1,3.3
		L67.1,212v1.4l0.7,1.9l-0.2,2.1l0.6,3.4l-1,1.7l1.7,3.2l1.1,4.1l1.1,1.1l2.6-0.5l2.7-1.7l3,1.5l1.2,2.6l1,0.7h3.9l6.5,1.8l3.2,0.3
		l4.2-0.3l2.5-1.3l8.6-1.8l3.8,3l0.8,1.8l1.8,1.1l0.8,1.3l1.1-0.5h2.4l0.7-0.4l1.2-2.9l2.3-2.2l1.5-2.5h0.5l1.1,1.6l0.3,1.8
		l-0.2,1.5l-1.2,2.4l0.7,5.4l1.6,0.8l5.7-0.2l1.1-0.5l1.1-1.9l1.1-1.1l0.7-0.3l1.7,0.7l0.2-0.3l-0.1-5.4l-0.7-1.9l-1.2-0.3l-2.2,3
		l-1.4,0.1l-1-0.7v-2l1.6-2.4l1-3.2l0.8-0.9l3.2-1l1.3-0.9l1-1.3l1.9-4l0.8-2.9l2.2-1l0,0l0,0l0,0l7.3,2.3l5.7,3.6l5.1,0.2l13.5-1.8
		l3.1,0.1l8.9,6.1l4.9,2.1l11.2,1.5h15.2l7.4,0.6l11.6-0.9h6.7l0,0l5,3.9l1.6,2.6l0,0l0.2,8.4l-0.5,7.7l-1.6,4.3l-3.2,4.9l-0.9,2.1
		l-0.4,3.1l0.6,5l-6.9,2.6l-7.9,3.7l-1.6,1.1l-2.4,2.6l-0.2,1.7l-2,3.6l-0.1,2.5l-0.9,2.2L226,294l-1,1l-1-0.4l-5-6.8l-7.8-6.5
		l-1.1-5.7l-2.2-3.5l-3.9-0.7l-2.5-2.4l-1.4-0.6l-3.2,0.5l-10,3.2l-3,0.2l-6.1,4.1l-1.3,2.1l-0.2,5.3l0.6,2.4l-1,1.2l-1.3-0.2
		l-1.6-2.5l-0.7-0.4H167l-1.7,1.3l-1,0.3l-3.3-1.4l-0.9,0.8l-0.2,1.9l-1.8-0.6l-1.9,0.2l-0.7,2.1l-1.2,1.3l-0.6,2.2l-1.6,1.4l-2.7-1
		l-1.9-3l-2-0.3l-2.7,1.1l-0.9,2.7l-2.9-1.7h-1.4l-1.7,2.2l-3.3,0.5l-6.8,5.3l-1.3-0.2l-0.4-2.3l-1.6-2l-0.6-1.9l-2-2.7l-1.2-3.4
		l-1.8-1.2l-1.5-0.3h-1.3l-2.3,1.5l-2.6,0.2l-2,1.8l-3.7-0.2l-1.3,0.6l-1.1-0.5l-1.8,1.5l-1.9,0.2l-2.5,1l-2.2,1.6l-3,0.4l-2.1-0.9
		l-0.7,0.1l-2.7,1.6l-1,0.1l-1.3-0.3l-0.6-2.1l-1.8-0.5l0.8-1.9l-0.1-0.9l-1.2-0.7l-1,0.1l-1.2,0.8l-1.2,2.4l-2.2,1.6l-0.4,1.3
		l0.2,1.7l-1,0.9l-0.1,2l-1.1,0.8l-0.2,0.9l-0.6,0.5l-1.8-1.2h-1.3l-0.9-1.5l-0.7-0.4l-1.1,0.5l-1.7,2.2l-0.8,0.1l-0.6-2.5l-2.3-0.7
		l1.5-1.6l-0.8-1.4l0,0l-0.9-1.3l-3-2.1l-1.8-5l-5.8,0.8l-4.6-0.7l-1-0.7l-0.5-1.6l0.1-1.5l0.6-0.6l2.8,0.3l1.6-1.1l1.8-0.3l0.5-0.6
		l1.9-0.1l2.6-2.4l0.1-1.9l1-2.5l-0.9-5.8L53.7,256l0,0l-0.3-5.6l-2.4-9.1l-0.1-2.9l-1.2-2.5l-1.1-4.6l2-13.1l0.4-8.3l-0.8-5.4
		l-2-3.4l0.7-1.6L51,199l0.8-0.9l0.4-1.4l-0.1-3.3l0.7-1L53.6,191.6z"/>
	<g id="marker-HM">
		<path class="st1" d="M131.8,238.4c2.8,0,5.4,0.7,7.7,2.4c3,2.2,5,5.1,5.6,8.8c0.3,1.6,0.3,3.2,0,4.8c-0.3,1.5-0.9,2.8-1.6,4.1
			c-1.4,2.4-3,4.6-4.5,6.9c-1.9,2.7-3.8,5.4-5.7,8.2c-0.7,1-1.9,1-2.5,0.5c-0.2-0.1-0.3-0.3-0.4-0.4c-3-4.3-5.9-8.6-8.9-12.9
			c-1.1-1.6-2-3.2-2.6-5c-0.4-1.2-0.5-2.5-0.5-3.8c0-1.5,0.2-3,0.7-4.4c0.5-1.6,1.4-3,2.5-4.3c1-1.1,2.1-2.2,3.4-2.9
			c1.6-0.9,3.2-1.5,5.1-1.7C130.6,238.5,131.2,238.4,131.8,238.4z M131.8,257.6c3.1,0,5.6-2.5,5.6-5.6c0-3-2.5-5.6-5.6-5.6
			c-3.1,0-5.6,2.5-5.7,5.6C126.2,255,128.7,257.6,131.8,257.6z"/>
	</g>
</g>
<g>
	<path id="SY-LA" class="st0" d="M17,228.4l-7.2-5.9l-2.5-0.8L6.6,223l-0.8-1L5,221.8l-0.3-0.4l0.3-1.1l0.1,0.1l-0.2,1.1l0.6-0.8
		l0.2-1.3l-0.4-0.3l0.6-1L5,217.7L4.9,217l-0.5,0.3l-0.1-0.9L4,216.5l-1.4-0.9v-0.5H2l1.3-1.5l-0.3-1l-0.7-0.2L0.8,213l-0.4-0.8h1.2
		l1.3-0.9l0.1,0.4l0.7,0.1l0.2-0.6l0.6,0.1l0.6-2.1l0.6-0.2l0.1,0.5l0.4-0.1l-0.3-1.1l0.5-0.1l0.7-1.9l-0.4-0.4l-0.2-1.7l-1-0.6
		l0.1-1.8l1.3-1.3l1.7-0.4l0.1-0.8l0.6-0.5l-0.1-0.6l1-0.5l0.3-0.8l1.2-0.4l0.4-2.8l1.1-0.6l-0.6-5.1l-0.9-1.1v-1.3l-0.9-0.9
		l-0.1-1.9l-1.3-0.9l0.5-1.6L8.7,180v-0.4l0.8,0.1l0.5-0.5l0.4,0.6l0.7-0.2l0.4,0.5l1.7-0.1l1.9-1.9h0.8l0.7-0.9l0.7-3.6l0.5-0.3
		l0.2-1.1l0.5-0.7l1.8-0.9l0.1-0.4l1.7,1.7l6.5-2.7l0.7,0.1l1.4,1.9l-0.8,4.2l0.4,1.1l3.1,0.2l6.6,1.6l1.7,1.2l1.4,2.6l0,0l0.5,2.6
		l-0.4,1.7l0.3,0.8l1.1,0.6l6.7-1.1l3.8-0.2l1.7,0.6l0.2,0.8l-0.5,1.8l-2.9,1.8l0,0l-1.2,0.5l-0.7,1l0.1,3.3l-0.4,1.4l-0.8,0.9
		l-2.1,0.5l-0.7,1.6l2,3.4l0.8,5.4l-0.4,8.3l-2,13.1l1.1,4.6l1.2,2.5l0.1,2.9L53,250l0.3,5.6l0,0l-4.4-2.4l-4.4,2l-9.7,0.3l-3.4,0.9
		l-0.9-0.2l-4.8-3.8l-1.5-0.8l-2.5-0.2l0,0l-0.3-0.6h-0.6l-0.4-1.7l0.2-2.1l-0.3-1l0.3-0.7l-0.4-0.3l0.3-2.3l-0.3-0.2l-0.2-5.7
		l0.4-0.4l-1-3.8l0.4-0.6l-1.1-1.9L17,228.4z"/>
	<g id="marker-LA">
		<path class="st1" d="M29.4,191.6c2.8,0,5.4,0.7,7.7,2.4c3,2.2,5,5.1,5.6,8.8c0.3,1.6,0.3,3.2,0,4.8c-0.3,1.5-0.9,2.8-1.6,4.1
			c-1.4,2.4-3,4.6-4.5,6.9c-1.9,2.7-3.8,5.4-5.7,8.2c-0.7,1-1.9,1-2.5,0.5c-0.2-0.1-0.3-0.3-0.4-0.4c-3-4.3-5.9-8.6-8.9-12.9
			c-1.1-1.6-2-3.2-2.6-5c-0.4-1.2-0.5-2.5-0.5-3.8c0-1.5,0.2-3,0.7-4.4c0.5-1.6,1.4-3,2.5-4.3c1-1.1,2.1-2.2,3.4-2.9
			c1.6-0.9,3.2-1.5,5.1-1.7C28.2,191.7,28.8,191.6,29.4,191.6z M29.4,210.8c3.1,0,5.6-2.5,5.6-5.6c0-3-2.5-5.6-5.6-5.6
			c-3.1,0-5.6,2.5-5.7,5.6C23.7,208.2,26.3,210.8,29.4,210.8z"/>
	</g>
</g>
<g>
	<path id="SY-TA" class="st0" d="M21.8,314.5l-0.6-5.9l-4.2-9.8l-1.1-3.6l-1.5-0.4l-0.4-1.2l0.5,1.1l1.1,0.2l-0.4-0.3l-0.3-0.1
		l0.3-0.4l-0.5-0.1l0.4-0.3l-0.4-0.2l1.7-1.2l-0.1-4l-0.7-1.7l0.4,0.3l0.2-2.8l1.5-1.2l0.5-1l-0.5-4l-0.7-1.4V275l0.7-1.8l-0.5-3.2
		l0.5-0.3l0.3-1.2l1-0.2l1.1-3.5l0.6-0.1l0.5-0.7l-0.4-2l0.8-0.9l1.9-1l0.2-0.6l-0.5-4l-1.5-3.6l0,0l2.5,0.2l1.5,0.8l4.8,3.8
		l0.9,0.2l3.4-0.8l9.7-0.3l4.4-2l4.4,2.4l0,0l0.6,11.6l0.9,5.8l-1,2.5l-0.1,1.9l-2.6,2.4l-1.9,0.1l-0.5,0.6L47,281l-1.6,1.1
		l-2.8-0.3l-0.6,0.6l-0.1,1.5l0.5,1.6l1,0.7l4.6,0.7l5.8-0.8l1.8,5l3,2.1l0.9,1.3l0,0l-3.4,1.7l-0.7,1.8l0.1,3.7l-3.4,3l-0.9,1.8
		l-2.1,0.9l-1.2,2.4l-1.3,0.9l-0.8,2.5l-3,4.4l-3,5.5l-0.3,2.5l0,0l-2.8,0.8l-1.9-0.3l-2.8,0.3l-1.6-1.5l-2.2-0.2l-0.5-0.6l-1.2,1.2
		l-0.1-0.4l-0.9,0.5C25.6,325.3,21.8,314.5,21.8,314.5z"/>
	<g id="marker-TA">
		<path class="st1" d="M29.4,264.2c2.8,0,5.4,0.7,7.7,2.4c3,2.2,5,5.1,5.6,8.8c0.3,1.6,0.3,3.2,0,4.8c-0.3,1.5-0.9,2.8-1.6,4.1
			c-1.4,2.4-3,4.6-4.5,6.9c-1.9,2.7-3.8,5.4-5.7,8.2c-0.7,1-1.9,1-2.5,0.5c-0.2-0.1-0.3-0.3-0.4-0.4c-3-4.3-5.9-8.6-8.9-12.9
			c-1.1-1.6-2-3.2-2.6-5c-0.4-1.2-0.5-2.5-0.5-3.8c0-1.5,0.2-3,0.7-4.4c0.5-1.6,1.4-3,2.5-4.3c1-1.1,2.1-2.2,3.4-2.9
			c1.6-0.9,3.2-1.5,5.1-1.7C28.2,264.3,28.8,264.3,29.4,264.2z M29.4,283.4c3.1,0,5.6-2.5,5.6-5.6c0-3-2.5-5.6-5.6-5.6
			c-3.1,0-5.6,2.5-5.7,5.6C23.7,280.9,26.3,283.4,29.4,283.4z"/>
	</g>
</g>
<g>
	<path id="SY-HI" class="st0" d="M421,408.9l-49.7,28.5l-65.9,38.7l-47.6,29.6l0,0l-4.4-4.2l-8.9-6.5l-7-5.9l-7.4-5.3l-9.4-8.9
		l-10.3-7.1l-8.6-2.5l-3.7-2.3l-7-5.4l-1.9-2l-4.2-6l-2.1-5.9l-1.8-3.6l-4.9-5l-7.4-5.6l-6.7-7.2l-3.4-2.3l-2.9-4.4l-3.5-7l-0.9-0.8
		l-4.2,0.3l-1.9-0.5l-13.2-7.9l-2.9-3.7l-5.5-9.5l-9.6-11.8l-2.4,0.5l-5.8,2.9l-5.4-0.2l-4.2-2.1l-3.4,0.1l-1.8,1l0,0l-2.6-1.2
		l-0.8-1.4l-0.9-4.1l0.5-1.1l1.4-1.6l-0.2-1.8l-3.5-1.2l-2.9-6.8l0.2-1.2l2.3-3l-0.6-1.4l-3.6-1.5l-0.8-1.8l-3.8-1.9l-1.6-2.9
		l-0.3-1.8l-3.1,0.2l-1.2,0.9l-2.8-1l-1.4,1l-1.9-0.8l-0.8-1.3l0.5-1.5l4.7-2.1l1.4-1l0.3-0.9l-0.5-2.1l1.3-3.9l0.8,0.1l1.5,1.8
		l1.7-0.2L75,327l-1.1-0.2l-2.1,1.2l-1.8-0.3l-3.7-2.4l-1.9-1.9l0.1-1l-1.8-2.4l-1.4-0.3l-1,1.1l-0.5,3.5l-2.2,2l-1.8,0.2l-2.6-0.5
		l-1.8,0.8l-2.5-1.5l-2.9,0.8l-4.1-1.1l-2.4,0.5l0,0l0.3-2.5l3-5.5l3-4.4l0.8-2.5l1.3-0.9l1.2-2.4l2.1-0.9l0.9-1.8l3.4-3l-0.1-3.7
		l0.7-1.8l3.4-1.7l0,0l0.8,1.4l-1.5,1.6l2.3,0.7l0.6,2.5l0.8-0.1l1.7-2.2l1.1-0.5l0.7,0.4l0.9,1.5h1.3l1.8,1.2l0.6-0.5l0.2-0.9
		l1.1-0.8l0.1-2l1-0.9l-0.2-1.7l0.4-1.3l2.2-1.6l1.2-2.4l1.2-0.8l1-0.1l1.2,0.7l0.1,0.9l-0.8,1.9l1.8,0.5l0.6,2.1l1.3,0.3l1-0.1
		l2.7-1.6l0.7-0.1l2.1,0.9l3-0.4l2.2-1.6l2.5-1l1.9-0.2l1.8-1.5l1.1,0.5l1.3-0.6l3.7,0.2l2-1.8l2.6-0.2l2.3-1.5h1.3l1.5,0.3l1.8,1.2
		l1.2,3.4l2,2.7l0.6,1.9l1.6,2l0.4,2.3l1.3,0.2l6.8-5.3l3.3-0.5l1.7-2.2h1.4l2.9,1.7l0.9-2.7l2.7-1.1l2,0.3l1.9,3l2.7,1l1.6-1.4
		l0.6-2.2l1.2-1.3l0.7-2.1l1.9-0.2l1.8,0.6l0.2-1.9l0.9-0.8l3.3,1.4l1-0.3l1.7-1.3h5.3l0.7,0.4l1.6,2.5l1.3,0.2l1-1.2l-0.6-2.4
		l0.2-5.3l1.3-2.1l6.1-4.1l3-0.2l10-3.2l3.2-0.5l1.4,0.6l2.5,2.4l3.9,0.7l2.2,3.5l1.1,5.7l7.8,6.5l5,6.8l1,0.4l1.1-0.5l1.9-2.2
		l0.9-2.2l0.1-2.5l2-3.6l0.2-1.7l2.4-2.6l1.6-1.1l7.9-3.7l6.9-2.6l-0.6-5l0.4-3.1l0.9-2.1l3.2-4.9l1.6-4.3l0.5-7.7l-0.2-8.4l0,0
		l6.8-1l8.4-0.1l6.6,0.3l15.8,1.9l21.2,4.3l12,4.1l10.4,1.9l11.5,4.5l0,0l5.1,3.4l6.6,5.7l8.2,17.3l-1,9.6l56,80.1l18.9,28.1l0,0
		L421,408.9z"/>
	<path id="marker-HI" class="st1" d="M246.5,334.5c2.8,0,5.4,0.7,7.7,2.4c3,2.2,5,5.1,5.6,8.8c0.3,1.6,0.3,3.2,0,4.8
		c-0.3,1.5-0.9,2.8-1.6,4.1c-1.4,2.4-3,4.6-4.5,6.9c-1.9,2.7-3.8,5.4-5.7,8.2c-0.7,1-1.9,1-2.5,0.5c-0.2-0.1-0.3-0.3-0.4-0.4
		c-3-4.3-5.9-8.6-8.9-12.9c-1.1-1.6-2-3.2-2.6-5c-0.4-1.2-0.5-2.5-0.5-3.8c0-1.5,0.2-3,0.7-4.4c0.5-1.6,1.4-3,2.5-4.3
		c1-1.1,2.1-2.2,3.4-2.9c1.6-0.9,3.2-1.5,5.1-1.7C245.3,334.6,245.9,334.6,246.5,334.5z M246.5,353.7c3.1,0,5.6-2.5,5.6-5.6
		c0-3-2.5-5.6-5.6-5.6c-3.1,0-5.6,2.5-5.7,5.6C240.9,351.2,243.4,353.7,246.5,353.7z"/>
</g>
<g>
	<path id="SY-DY" class="st0" d="M544.1,276.4l0.7,13.7v9.3l0.8,9l-9.7,14.5l-10.5,25.3l-1.6,1.5l-0.5,2.4L483,373.8l-40.7,23l0,0
		l-18.9-28.1l-56-80.1l1-9.6l-8.2-17.3l-6.6-5.7l-5.1-3.4l0,0l42.9-62.7l-1.7-0.4l-2.7-1.9l-1.3-0.1l18.3-82.1l0,0l1.5,4l3.8,6.1
		l2.2,4.4l3.9,4.9l78.1,76.9l2.7,1.8l1.8,2.6l6.8,3.8l5.7,1.2l8,2.4l10.4,1.1l13.5-0.1l12.6,1.7l0,0l-5,7.9l-0.8,12.2l-3.2,12
		l-1.7,9.8l-0.7,8.7L544.1,276.4z"/>
	<g id="marker-DY">
		<path class="st1" d="M458.2,249.6c2.8,0,5.4,0.7,7.7,2.4c3,2.2,5,5.1,5.6,8.8c0.3,1.6,0.3,3.2,0,4.8c-0.3,1.5-0.9,2.8-1.6,4.1
			c-1.4,2.4-3,4.6-4.5,6.9c-1.9,2.7-3.8,5.4-5.7,8.2c-0.7,1-1.9,1-2.5,0.5c-0.2-0.1-0.3-0.3-0.4-0.4c-3-4.3-5.9-8.6-8.9-12.9
			c-1.1-1.6-2-3.2-2.6-5c-0.4-1.2-0.5-2.5-0.5-3.8c0-1.5,0.2-3,0.7-4.4c0.5-1.6,1.4-3,2.5-4.3c1-1.1,2.1-2.2,3.4-2.9
			c1.6-0.9,3.2-1.5,5.1-1.7C457,249.7,457.6,249.6,458.2,249.6z M458.2,268.7c3.1,0,5.6-2.5,5.6-5.6c0-3-2.5-5.6-5.6-5.6
			c-3.1,0-5.6,2.5-5.7,5.6C452.6,266.2,455.1,268.7,458.2,268.7z"/>
	</g>
</g>
<g>
	<path id="SY-SU" class="st0" d="M84.8,496.9l0.3,0.3l0.9-0.4l15.5-1.8l6.3-1.8l1.8,0.2l3.2,3l3.2,1.7l1.3,1.4l0.8,2.9l4.1,4.3
		l0.6,3.4l1.4,1.6l1.7,0.8l5.9,0.6l3.1,1.3l2.6,2l0.2,2.5l2.4,3.2l0.5,1.4l2.7,1.1l2.3,1.5l1.4,0.2l2.5-1.8l2.5,1l2.1,2.8l0.8,6.8
		l1,1.7l8.7,8.4l2.9,2.3l2.3,3l3.6,2.1l3.5,4.2l0,0L122.8,591l-6.6,5l-4.3,4.2l-2,0.2l-8.6-2.5l-2.5,0.8l-2.1-1.6l-2.1-0.4L79.1,595
		l0,0l0.8-4.8l-0.5-4l1.1-5.9l-0.3-1l-3-3.6l0.3-1.1l1.2-1.5v-0.9l-0.3-0.8l-1.1-0.8l-1.9,0.2l-1.5-1.4l-3.3,0.3l-1.8-0.2l-1-0.5
		l0.8-2.8l-1-1.9l0.1-0.7l2.3-0.9l2.5-2l0.4-2.2l-1.2-1.5l-3.9-0.4l-3.3-0.9l-0.8-0.8l-0.2-3.3l0.2-0.6l1-0.4l0.2-0.7l-1.1-3.4
		l-0.5-4.3l1.1-2.4l-1.8-3.5l-0.9-4.4l1.1-2.9l-0.6-1.8l0.3-1.2l3-1.8l4.1-3.5l2.3-0.9l3.2-0.2l6.1,0.4l1.3-0.3l-1.1-2.6l-0.4-3.6
		l-1.3-0.3l-2,0.7l-0.9-0.7l-0.3-3.2l-1.5-4l0.3-2.1l-0.5-1.7l1.2-2.4l2.8-2.1l3.8,0.6l0.9-0.2L84.8,496.9z"/>
	<g id="marker-SU">
		<path class="st1" d="M109.2,532.9c2.8,0,5.4,0.7,7.7,2.4c3,2.2,5,5.1,5.6,8.8c0.3,1.6,0.3,3.2,0,4.8c-0.3,1.5-0.9,2.8-1.6,4.1
			c-1.4,2.4-3,4.6-4.5,6.9c-1.9,2.7-3.8,5.4-5.7,8.2c-0.7,1-1.9,1-2.5,0.5c-0.2-0.1-0.3-0.3-0.4-0.4c-3-4.3-5.9-8.6-8.9-12.9
			c-1.1-1.6-2-3.2-2.6-5c-0.4-1.2-0.5-2.5-0.5-3.8c0-1.5,0.2-3,0.7-4.4c0.5-1.6,1.4-3,2.5-4.3c1-1.1,2.1-2.2,3.4-2.9
			c1.6-0.9,3.2-1.5,5.1-1.7C108,533,108.6,532.9,109.2,532.9z M109.2,552.1c3.1,0,5.6-2.5,5.6-5.6c0-3-2.5-5.6-5.6-5.6
			c-3.1,0-5.6,2.5-5.7,5.6C103.5,549.5,106.1,552.1,109.2,552.1z"/>
	</g>
</g>
<g>
	<path id="SY-DI_00000107590994563592172640000004416918164910502072_" class="st0" d="M84.8,496.9l-0.6-4l-3.4-3.9l-1.3-3.3
		l-0.8-0.8l-1.5,0.6l-1.8,2l-6.1,3.9l-1.9,1.9l-0.6,2.6l-1,0.6l-3.5-0.8l-2-1.8l-1-1.7l-3.1-0.7l-0.6-2.3l-2-1.3l-1.9-2.5l-1.3,0.9
		l-0.2,1.1l0.5,2.7l-1.4,3.2l-0.6,0.5l-3,0.5l-3.5,1.6l-5.5-0.5l-1.7,0.7l-2.7,2.2l-1.6,0.5l-2.6-0.3l-1-2l-2.5-1l0,0l0.2-4.6
		l-0.4-0.9l-4.1-0.5l-3.4-3.4l1-1.6l-0.1-0.4l-2.2-1.3l0,0l-0.3-3.3l0.3-2.1l0.8-2.2l3-4l0.4-1.5l-0.1-0.9l-0.5-0.4l4.1-3.8l1.2-1.9
		l0.2-1.4l-1.1-3.1l1.6-0.9l5.6-1.2l3-1.7l1.2-1.6l-0.2-2.4l-0.6-0.8l-7.1-4.1l-3.8-0.5l-0.5-1.1l0.2-0.8l3.1-3l0.1-3.4l1.9-2.4
		l1.8-3.1l0.4-1.4l0.5-0.5l1.9-0.2l3.3-5.4l4.4-1.2l4-2.8l0.9-0.1l1.1,2l2.1,0.6l3.1-0.3l1.9-2.2l2.8,0.7l1.1,1h2l4.3,1.7l1.5,0.1
		l0.7-0.4l1.3-2.1l-0.7-1.5l-2.2-1.9l-4-1.3l-3-2.6l-0.2-1.1l0.7-1.7l3.2-4.9l1.9-2.1l1.8-0.7l0.3-1.4l3.4-2.9l0.3-1.5l3-1.4
		l3.6,1.2l2.2-1.3l1.5-1.4l0.3-3.3l2.5-3.3l1.2-0.9l2-0.7l0.7-2.7l1.3-1.2l0.6-1.8l2.6-1.4l1-1.4l-0.5-0.5l0,0l1.8-1l3.4-0.1
		l4.2,2.1l5.4,0.2l5.8-2.9l2.4-0.5l9.6,11.8l5.5,9.5l2.9,3.7l13.2,7.9l1.9,0.5l4.2-0.3l0.9,0.8l3.5,7l2.9,4.4l3.4,2.3l6.7,7.2
		l7.4,5.6l4.9,5l1.8,3.6l2.1,5.9l4.2,6l1.9,2l7,5.4l3.7,2.3l8.6,2.5l10.3,7.1l9.4,8.9l7.4,5.3l7,5.9l8.9,6.5l4.4,4.2l0,0l-81,51.1
		l0,0l-3.5-4.2l-3.6-2.1l-2.3-3l-2.9-2.3l-8.7-8.4l-1-1.7l-0.8-6.8l-2.1-2.8l-2.5-1l-2.5,1.8l-1.4-0.2l-2.3-1.5l-2.7-1.1l-0.5-1.4
		l-2.4-3.2l-0.2-2.5l-2.6-2l-3.1-1.3l-5.9-0.6l-1.7-0.8l-1.4-1.6l-0.6-3.4l-4.1-4.3l-0.8-2.9l-1.3-1.4l-3.2-1.7l-3.2-3l-1.8-0.2
		l-6.3,1.8l-15,1.8l-0.9,0.4L84.8,496.9L84.8,496.9z M68.1,450.4l-9.9-0.3l-1.3,0.8l0.1,4.3l1.7,1.8l1,2.3l1.4,0.7l6.9-0.2
		C68,459.9,68.1,450.4,68.1,450.4z"/>
	<path id="marker-DI_00000099647761471047780320000000829860224912762264_" class="st1" d="M153.1,455c2.8,0,5.4,0.7,7.7,2.4
		c3,2.2,5,5.1,5.6,8.8c0.3,1.6,0.3,3.2,0,4.8c-0.3,1.5-0.9,2.8-1.6,4.1c-1.4,2.4-3,4.6-4.5,6.9c-1.9,2.7-3.8,5.4-5.7,8.2
		c-0.7,1-1.9,1-2.5,0.5c-0.2-0.1-0.3-0.3-0.4-0.4c-3-4.3-5.9-8.6-8.9-12.9c-1.1-1.6-2-3.2-2.6-5c-0.4-1.2-0.5-2.5-0.5-3.8
		c0-1.5,0.2-3,0.7-4.4c0.5-1.6,1.4-3,2.5-4.3c1-1.1,2.1-2.2,3.4-2.9c1.6-0.9,3.2-1.5,5.1-1.7C151.9,455.1,152.5,455,153.1,455z
		 M153.1,474.2c3.1,0,5.6-2.5,5.6-5.6c0-3-2.5-5.6-5.6-5.6c-3.1,0-5.6,2.5-5.7,5.6C147.5,471.6,150,474.2,153.1,474.2z"/>
</g>
<g>
	<path id="SY-RD" class="st0" d="M59.7,459.3l-1-2.3l-1.7-1.8l-0.1-4.3l1.3-0.9l9.9,0.3l-0.1,9.5l-7,0.2L59.7,459.3z"/>
	<g id="marker-RD">
		<path class="st1" d="M62.5,420.2c2.8,0,5.4,0.7,7.7,2.4c3,2.2,5,5.1,5.6,8.8c0.3,1.6,0.3,3.2,0,4.8c-0.3,1.5-0.9,2.8-1.6,4.1
			c-1.4,2.4-3,4.6-4.5,6.9c-1.9,2.7-3.8,5.4-5.7,8.2c-0.7,1-1.9,1-2.5,0.5c-0.2-0.1-0.3-0.3-0.4-0.4c-3-4.3-5.9-8.6-8.9-12.9
			c-1.1-1.6-2-3.2-2.6-5c-0.4-1.2-0.5-2.5-0.5-3.8c0-1.5,0.2-3,0.7-4.4c0.5-1.6,1.4-3,2.5-4.3c1-1.1,2.1-2.2,3.4-2.9
			c1.6-0.9,3.2-1.5,5.1-1.7C61.3,420.3,61.9,420.3,62.5,420.2z M62.5,439.4c3.1,0,5.6-2.5,5.6-5.6c0-3-2.5-5.6-5.6-5.6
			c-3.1,0-5.6,2.5-5.7,5.6C56.8,436.8,59.4,439.4,62.5,439.4z"/>
	</g>
</g>
<g>
	<path id="SY-DR" class="st0" d="M65.9,589.2l-4.2-4.3l-12.9-10l-2.7,1.2l-4.4-0.7l-2.3,0.1l-2,0.6l-0.6-3.6l-1.4-3.1l-3.5-3.7
		l0.4-4.1l-0.3-1.4l-1.6-0.9l-2.6,0.1l-2-1.1l0.9-1.3v-1l-0.8-0.7h-1.2l-1.1-0.7l-0.6-1.7l-0.8-0.8l-1.6,0.2l-1.9-0.3l-2.3-1.3h-1.6
		l-2.7,0.8l-1.5-0.7l-0.3-0.6l-0.9,0.1l-0.3-0.5l0.4-1.2l3.1-3.6l2.4-4.3l1.6-1.7l3.2-6.3l0,0l2.9-2.7l-0.1-3l-0.9-1.8l0.2-0.9
		l3.3-0.4l1.6,1.9l0.5-0.8l-0.4-2.3l-1.6-1.9l-2.3-4.4l0.7-6.4l2.8-5.5l-0.4-1.2l-2.4-1.7l-0.2-0.6l1-5.3l0,0l2.5,1l1,2l2.6,0.3
		l1.7-0.5l2.7-2.2l1.7-0.7l5.5,0.5l3.5-1.6l3-0.5l0.6-0.5l1.4-3.2l-0.5-2.7l0.2-1.1l1.3-0.9l1.9,2.4l1.9,1.3l0.6,2.3l3.1,0.7l1,1.7
		l2,1.8l3.5,0.8l1-0.6l0.6-2.6l1.9-1.9l6.1-3.9l1.8-2l1.5-0.6l0.8,0.8l1.3,3.3l3.4,3.9l0.6,4l0,0l0,0l0,0l-1.3,1.1l-0.9,0.2
		l-3.8-0.6l-2.8,2.1l-1.2,2.4l0.5,1.7L75,506l1.4,3.7l0.3,3.2l0.9,0.7l2-0.7l1.3,0.3l0.4,3.6l1.1,2.6l-1.3,0.3l-6.1-0.4l-3.2,0.2
		l-2.3,0.9l-4.1,3.5l-3,1.8l-0.3,1.2l0.6,1.8l-1.1,2.9l0.9,4.4l1.8,3.5l-1.1,2.4l0.5,4.3l1.1,3.4l-0.2,0.7l-1,0.4l-0.2,0.6l0.2,3.3
		l0.8,0.8l3.3,0.9l3.9,0.4l1.2,1.5l-0.4,2.2l-2.5,2l-2.3,0.9l-0.1,0.7l1,1.9l-0.8,2.8l1,0.5l1.8,0.2l3.3-0.3l1.5,1.4l1.9-0.2
		l1.1,0.8l0.3,0.8v0.9l-1.2,1.5l-0.3,1.1l3,3.6l0.3,1l-1.1,5.9l0.5,4l-0.8,4.8l0,0l-1-0.3l-2.3-1.7l-7-1L65.9,589.2z"/>
	<g id="marker-DR">
		<path class="st1" d="M46.9,505.7c2.8,0,5.4,0.7,7.7,2.4c3,2.2,5,5.1,5.6,8.8c0.3,1.6,0.3,3.2,0,4.8c-0.3,1.5-0.9,2.8-1.6,4.1
			c-1.4,2.4-3,4.6-4.5,6.9c-1.9,2.7-3.8,5.4-5.7,8.2c-0.7,1-1.9,1-2.5,0.5c-0.2-0.1-0.3-0.3-0.4-0.4c-3-4.3-5.9-8.6-8.9-12.9
			c-1.1-1.6-2-3.2-2.6-5c-0.4-1.2-0.5-2.5-0.5-3.8c0-1.5,0.2-3,0.7-4.4c0.5-1.6,1.4-3,2.5-4.3c1-1.1,2.1-2.2,3.4-2.9
			c1.6-0.9,3.2-1.5,5.1-1.7C45.7,505.8,46.3,505.7,46.9,505.7z M46.9,524.9c3.1,0,5.6-2.5,5.6-5.6c0-3-2.5-5.6-5.6-5.6
			c-3.1,0-5.6,2.5-5.7,5.6C41.2,522.3,43.8,524.9,46.9,524.9z"/>
	</g>
</g>
<g>
	<path id="SY-QU" class="st0" d="M15.8,483.1l2.2,1.3l0.1,0.4l-1,1.6l3.4,3.4l4.1,0.5l0.4,1l-0.2,4.6l0,0l-1,5.3l0.2,0.6l2.4,1.7
		l0.4,1.2l-2.8,5.5l-0.7,6.4l2.3,4.4l1.6,1.9l0.4,2.3l-0.5,0.8l-1.6-1.9l-3.3,0.4l-0.2,0.9l0.9,1.8l0.1,3l-2.9,2.7l0,0l0.8-2.5
		l-2-3.2l-0.9-7.8l-0.5-1.7l0.3-3.7l-0.5-2.1l0.6-1l2,0.5l1.6-0.5v-0.8l-1.3-1.9l1.8-1.9l0.2-3.1l-2.1-3l-2.9-0.8l-0.2-1.3l1.2-1.6
		l0.6-1.9l-0.8-3.8l-3.2-3.6l1.1-1.9L15.8,483.1z"/>
	<g id="marker-QU">
		<path class="st1" d="M21.2,483.7c2.8,0,5.4,0.7,7.7,2.4c3,2.2,5,5.1,5.6,8.8c0.3,1.6,0.3,3.2,0,4.8c-0.3,1.5-0.9,2.8-1.6,4.1
			c-1.4,2.4-3,4.6-4.5,6.9c-1.9,2.7-3.8,5.4-5.7,8.2c-0.7,1-1.9,1-2.5,0.5c-0.2-0.1-0.3-0.3-0.4-0.4c-3-4.3-5.9-8.6-8.9-12.9
			c-1.1-1.6-2-3.2-2.6-5c-0.4-1.2-0.5-2.5-0.5-3.8c0-1.5,0.2-3,0.7-4.4c0.5-1.6,1.4-3,2.5-4.3c1-1.1,2.1-2.2,3.4-2.9
			c1.6-0.9,3.2-1.5,5.1-1.7C20,483.8,20.6,483.8,21.2,483.7z M21.2,502.9c3.1,0,5.6-2.5,5.6-5.6c0-3-2.5-5.6-5.6-5.6
			c-3.1,0-5.6,2.5-5.7,5.6C15.5,500.4,18.1,502.9,21.2,502.9z"/>
	</g>
</g>
</svg>
